<svg xmlns="http://www.w3.org/2000/svg" viewBox="0 0 24 24">
  <path d="M9.5 6.5c0 .83-.67 1.5-1.5 1.5S6.5 7.33 6.5 6.5 7.17 5 8 5s1.5.67 1.5 1.5z" fill="#FFFFFF" stroke="#FFFFFF" stroke-width="0.5" />
  <path d="M20 10c0-1.1-.9-2-2-2h-2.5l-.65-1.29c-.21-.41-.63-.71-1.11-.71H10.3c-.48 0-.9.3-1.11.7L8.5 8H6c-1.1 0-2 .9-2 2v8c0 1.1.9 2 2 2h12c1.1 0 2-.9 2-2v-8zm-13 2c0 .43-.36.78-.8.78-.44 0-.8-.35-.8-.78s.36-.78.8-.78c.44 0 .8.35.8.78zm4.5 6c-1.93 0-3.5-1.57-3.5-3.5S9.57 11 11.5 11s3.5 1.57 3.5 3.5-1.57 3.5-3.5 3.5zm0-5c-.83 0-1.5.67-1.5 1.5s.67 1.5 1.5 1.5 1.5-.67 1.5-1.5-.67-1.5-1.5-1.5z" fill="#FFFFFF" stroke="#FFFFFF" stroke-width="0.5" />
  <path d="M18 14.6L16.5 13c0 .84.34 1.61.9 2.17L18 14.6z" fill="#FFFFFF" stroke="#FFFFFF" stroke-width="0.5" />
  <path d="M19.25 13.75L17.75 15l.5.5c.32-.32.58-.72.75-1.17l.25-.58z" fill="#FFFFFF" stroke="#FFFFFF" stroke-width="0.5" />
</svg> 