<svg xmlns="http://www.w3.org/2000/svg" viewBox="0 0 24 24">
  <path d="M16 9c-.15 0-.28.13-.28.3v5.23c0 .57-.46 1.03-1.03 1.03h-6.07c-.29 0-.53-.24-.53-.53V9.3c0-.17-.13-.3-.28-.3H4c-.55 0-1 .45-1 1v14c0 .55.45 1 1 1h16c.55 0 1-.45 1-1V10c0-.55-.45-1-1-1h-4zm-1 5c0-.55-.45-1-1-1s-1 .45-1 1 .45 1 1 1 1-.45 1-1z" fill="#FFFFFF" stroke="#FFFFFF" stroke-width="0.3" />
  <path d="M11.25 2.81c-.55-.89-1.73-1.16-2.62-.62l-1.62 1c-.88.55-1.16 1.73-.62 2.61l3.94 6.36 4.86-3.01-3.94-6.34z" fill="#FFFFFF" stroke="#FFFFFF" stroke-width="0.3" />
  <path d="M12.95 10.39l-1.33 1.28.84.84c.39-.38.69-.84.89-1.34l-.4-.78z" fill="#FFFFFF" stroke="#FFFFFF" stroke-width="0.3" />
  <path d="M16.54 8.74l-5.59 3.46.84.84c1.37-.22 2.6-.93 3.52-1.97l1.23-2.33z" fill="#FFFFFF" stroke="#FFFFFF" stroke-width="0.3" />
</svg> 